<svg version="1.1" xmlns="http://www.w3.org/2000/svg" xmlns:xlink="http://www.w3.org/1999/xlink" width="19.0244" height="19.0244" viewBox="0,0,19.0244,19.0244"><g transform="translate(-170.4878,-380.4878)"><g data-paper-data="{&quot;isPaintingLayer&quot;:true}" fill-rule="nonzero" stroke="#000000" stroke-linecap="butt" stroke-linejoin="miter" stroke-miterlimit="10" stroke-dasharray="" stroke-dashoffset="0" style="mix-blend-mode: normal"><path d="M171.2378,390c0,-4.83923 3.92297,-8.7622 8.7622,-8.7622c4.83923,0 8.7622,3.92297 8.7622,8.7622c0,4.83923 -3.92297,8.7622 -8.7622,8.7622c-4.83923,0 -8.7622,-3.92297 -8.7622,-8.7622z" fill="#ffffff" stroke-width="1.5"/><path d="M171.2378,390c0,-4.83923 3.92297,-8.7622 8.7622,-8.7622c4.83923,0 8.7622,3.92297 8.7622,8.7622c0,4.83923 -3.92297,8.7622 -8.7622,8.7622c-4.83923,0 -8.7622,-3.92297 -8.7622,-8.7622z" fill="#ff0000" stroke-width="1.5"/><path d="M177.12899,383.68655l8.59917,6.31345l-8.59917,6.31345z" fill="#ffffff" stroke-width="0.5"/></g></g></svg>