<svg version="1.1" xmlns="http://www.w3.org/2000/svg" xmlns:xlink="http://www.w3.org/1999/xlink" width="19.0244" height="19.0244" viewBox="0,0,19.0244,19.0244"><g transform="translate(-170.4878,-380.4878)"><g data-paper-data="{&quot;isPaintingLayer&quot;:true}" fill-rule="nonzero" stroke-linecap="butt" stroke-linejoin="miter" stroke-miterlimit="10" stroke-dasharray="" stroke-dashoffset="0" style="mix-blend-mode: normal"><path d="M171.2378,390c0,-4.83923 3.92297,-8.7622 8.7622,-8.7622c4.83923,0 8.7622,3.92297 8.7622,8.7622c0,4.83923 -3.92297,8.7622 -8.7622,8.7622c-4.83923,0 -8.7622,-3.92297 -8.7622,-8.7622z" fill="#ffffff" stroke="#000000" stroke-width="1.5"/><path d="M171.2378,390c0,-4.83923 3.92297,-8.7622 8.7622,-8.7622c4.83923,0 8.7622,3.92297 8.7622,8.7622c0,4.83923 -3.92297,8.7622 -8.7622,8.7622c-4.83923,0 -8.7622,-3.92297 -8.7622,-8.7622z" fill="#ffffff" stroke="#000000" stroke-width="1.5"/><path d="M171.2378,390c0,-4.83923 3.92297,-8.7622 8.7622,-8.7622c4.83923,0 8.7622,3.92297 8.7622,8.7622c0,4.83923 -3.92297,8.7622 -8.7622,8.7622c-4.83923,0 -8.7622,-3.92297 -8.7622,-8.7622z" fill="#ffffff" stroke="#000000" stroke-width="1.5"/><path d="M185.90842,393.06665c-1.03208,0.77169 -2.03322,1.23987 -3.01749,1.54625c-0.24372,-0.33413 -0.45933,-0.6903 -0.64587,-1.06369c0.35527,-0.13501 0.69648,-0.3016 1.01894,-0.49595c-0.08437,-0.06319 -0.16778,-0.12926 -0.24934,-0.19724c-1.93761,0.91723 -4.06833,0.91723 -6.02937,0c-0.08061,0.06798 -0.16404,0.13405 -0.24934,0.19724c0.32152,0.1934 0.66179,0.35999 1.01707,0.49499c-0.18654,0.37435 -0.40307,0.72956 -0.64586,1.06371c-0.98333,-0.30638 -1.98354,-0.77457 -3.01562,-1.5453c-0.21092,-2.26049 0.21092,-4.55353 1.767,-6.90499c0.77148,-0.36191 1.59734,-0.6252 2.46068,-0.77457c0.10686,0.19149 0.23341,0.44905 0.31871,0.65394c0.89991,-0.13787 1.80825,-0.13787 2.72502,0c0.08531,-0.20489 0.20905,-0.46245 0.31497,-0.65394c0.86242,0.14937 1.68732,0.4117 2.45881,0.77266c1.34893,2.01443 2.01917,4.28642 1.77169,6.9069zM179.09164,390.45766c0.01031,-0.67021 -0.47244,-1.21976 -1.07145,-1.21976c-0.59899,0 -1.07145,0.55052 -1.07145,1.21976c0,0.66924 0.48277,1.21882 1.07145,1.21882c0.59901,0 1.07238,-0.54957 1.07145,-1.21882zM183.05123,390.45766c0.01031,-0.67021 -0.47246,-1.21976 -1.07145,-1.21976c-0.59901,0 -1.07145,0.55052 -1.07145,1.21976c0,0.66924 0.48277,1.21882 1.07145,1.21882c0.59899,0 1.07145,-0.54957 1.07145,-1.21882z" fill="#5865f2" stroke="none" stroke-width="1"/></g></g></svg>