<svg version="1.1" xmlns="http://www.w3.org/2000/svg" xmlns:xlink="http://www.w3.org/1999/xlink" width="400" height="48" viewBox="0,0,400,48"><defs><radialGradient cx="175.70645" cy="388.63907" r="214.5" gradientUnits="userSpaceOnUse" id="color-1"><stop offset="0" stop-color="#4503d1"/><stop offset="1" stop-color="#4f157d"/></radialGradient></defs><g transform="translate(8.79355,-364.63907)"><g data-paper-data="{&quot;isPaintingLayer&quot;:true}" fill-rule="nonzero" stroke-linecap="butt" stroke-linejoin="miter" stroke-miterlimit="10" stroke-dasharray="" stroke-dashoffset="0" style="mix-blend-mode: normal"><path d="M-7.79355,411.63907v-46h398v46z" fill="url(#color-1)" stroke="#000000" stroke-width="2"/><path d="M15.17253,379.02575c0,-2.19903 1.78267,-3.98171 3.9817,-3.98171c2.19904,0 3.9817,1.78267 3.9817,3.98171c0,2.19903 -1.78267,3.98171 -3.9817,3.98171c-2.19903,0 -3.9817,-1.78267 -3.9817,-3.98171z" fill="#ffffff" stroke="none" stroke-width="0"/><path d="M33.90997,397.29475c0,-2.19903 1.78267,-3.98171 3.98171,-3.98171c2.19903,0 3.9817,1.78267 3.9817,3.98171c0,2.19903 -1.78267,3.9817 -3.9817,3.9817c-2.19904,0 -3.98171,-1.78267 -3.98171,-3.9817z" fill="#ffffff" stroke="none" stroke-width="0"/><path d="M116.35467,377.62045c0,-2.19903 1.78267,-3.98171 3.98171,-3.98171c2.19904,0 3.9817,1.78267 3.9817,3.98171c0,2.19903 -1.78266,3.98171 -3.9817,3.98171c-2.19904,0 -3.98171,-1.78267 -3.98171,-3.98171z" fill="#ffffff" stroke="none" stroke-width="0"/><path d="M63.88986,386.05229c0,-2.19903 1.78267,-3.98171 3.98171,-3.98171c2.19903,0 3.9817,1.78267 3.9817,3.98171c0,2.19903 -1.78267,3.98171 -3.9817,3.98171c-2.19904,0 -3.98171,-1.78267 -3.98171,-3.98171z" fill="#ffffff" stroke="none" stroke-width="0"/><path d="M2.99321,403.85285c0,-2.19903 1.78267,-3.98171 3.9817,-3.98171c2.19904,0 3.9817,1.78267 3.9817,3.98171c0,2.19903 -1.78266,3.98171 -3.9817,3.98171c-2.19903,0 -3.9817,-1.78267 -3.9817,-3.98171z" fill="#ffffff" stroke="none" stroke-width="0"/><path d="M149.14517,401.04224c0,-2.19903 1.78267,-3.98171 3.98171,-3.98171c2.19903,0 3.9817,1.78267 3.9817,3.98171c0,2.19903 -1.78267,3.98171 -3.9817,3.98171c-2.19903,0 -3.98171,-1.78267 -3.98171,-3.98171z" fill="#ffffff" stroke="none" stroke-width="0"/><path d="M202.54686,378.55732c0,-2.19903 1.78267,-3.98171 3.9817,-3.98171c2.19904,0 3.9817,1.78267 3.9817,3.98171c0,2.19903 -1.78266,3.98171 -3.9817,3.98171c-2.19903,0 -3.9817,-1.78267 -3.9817,-3.98171z" fill="#ffffff" stroke="none" stroke-width="0"/><path d="M219.41055,397.76318c0,-2.19903 1.78267,-3.98171 3.9817,-3.98171c2.19903,0 3.9817,1.78267 3.9817,3.98171c0,2.19903 -1.78267,3.9817 -3.9817,3.9817c-2.19903,0 -3.9817,-1.78267 -3.9817,-3.9817z" fill="#ffffff" stroke="none" stroke-width="0"/><path d="M264.84882,381.83636c0,-2.19903 1.78267,-3.98171 3.9817,-3.98171c2.19903,0 3.9817,1.78267 3.9817,3.98171c0,2.19903 -1.78267,3.98171 -3.9817,3.98171c-2.19903,0 -3.9817,-1.78267 -3.9817,-3.98171z" fill="#ffffff" stroke="none" stroke-width="0"/><path d="M305.78401,401.39859c-2.17597,-0.31766 -3.68243,-2.33915 -3.36477,-4.51512c0.31766,-2.17597 2.33915,-3.68242 4.51512,-3.36476c2.17597,0.31766 3.68243,2.33914 3.36477,4.51511c-0.31766,2.17597 -2.33915,3.68243 -4.51512,3.36477z" fill="#ffffff" stroke="none" stroke-width="0"/><path d="M327.22446,387.48614c-2.17597,-0.31766 -3.68243,-2.33915 -3.36477,-4.51512c0.31766,-2.17597 2.33915,-3.68242 4.51512,-3.36476c2.17597,0.31766 3.68243,2.33914 3.36477,4.51511c-0.31766,2.17597 -2.33915,3.68243 -4.51512,3.36477z" fill="#ffffff" stroke="none" stroke-width="0"/><path d="M357.13067,380.43106c0,-2.19903 1.78267,-3.98171 3.98171,-3.98171c2.19903,0 3.9817,1.78267 3.9817,3.98171c0,2.19903 -1.78266,3.98171 -3.9817,3.98171c-2.19904,0 -3.98171,-1.78267 -3.98171,-3.98171z" fill="#ffffff" stroke="none" stroke-width="0"/><path d="M373.99436,399.63692c0,-2.19903 1.78267,-3.98171 3.98171,-3.98171c2.19903,0 3.9817,1.78267 3.9817,3.98171c0,2.19903 -1.78266,3.9817 -3.9817,3.9817c-2.19904,0 -3.98171,-1.78267 -3.98171,-3.9817z" fill="#ffffff" stroke="none" stroke-width="0"/><path d="M78.8798,398.25745c0,-1.17847 0.95533,-2.1338 2.1338,-2.1338c1.17847,0 2.1338,0.95533 2.1338,2.1338c0,1.17847 -0.95533,2.1338 -2.1338,2.1338c-1.17847,0 -2.1338,-0.95533 -2.1338,-2.1338z" fill="#ffffff" stroke="none" stroke-width="0"/><path d="M58.97725,401.06063c0,-1.17847 0.95533,-2.1338 2.1338,-2.1338c1.17847,0 2.1338,0.95533 2.1338,2.1338c0,1.17847 -0.95533,2.1338 -2.1338,2.1338c-1.17847,0 -2.1338,-0.95533 -2.1338,-2.1338z" fill="#ffffff" stroke="none" stroke-width="0"/><path d="M41.17708,384.24157c0,-1.17847 0.95533,-2.1338 2.1338,-2.1338c1.17847,0 2.1338,0.95533 2.1338,2.1338c0,1.17847 -0.95533,2.1338 -2.1338,2.1338c-1.17847,0 -2.1338,-0.95533 -2.1338,-2.1338z" fill="#ffffff" stroke="none" stroke-width="0"/><path d="M91.07362,375.41157c0,-1.17847 0.95533,-2.1338 2.1338,-2.1338c1.17847,0 2.1338,0.95533 2.1338,2.1338c0,1.17847 -0.95533,2.1338 -2.1338,2.1338c-1.17847,0 -2.1338,-0.95533 -2.1338,-2.1338z" fill="#ffffff" stroke="none" stroke-width="0"/><path d="M108.87379,396.57555c0,-1.17847 0.95533,-2.1338 2.1338,-2.1338c1.17847,0 2.1338,0.95533 2.1338,2.1338c0,1.17847 -0.95533,2.1338 -2.1338,2.1338c-1.17847,0 -2.1338,-0.95533 -2.1338,-2.1338z" fill="#ffffff" stroke="none" stroke-width="0"/><path d="M149.23952,380.03681c0,-1.17847 0.95533,-2.1338 2.1338,-2.1338c1.17847,0 2.1338,0.95533 2.1338,2.1338c0,1.17847 -0.95533,2.1338 -2.1338,2.1338c-1.17847,0 -2.1338,-0.95533 -2.1338,-2.1338z" fill="#ffffff" stroke="none" stroke-width="0"/><path d="M178.39255,391.81015c0,-1.17847 0.95533,-2.1338 2.1338,-2.1338c1.17847,0 2.1338,0.95533 2.1338,2.1338c0,1.17847 -0.95533,2.1338 -2.1338,2.1338c-1.17847,0 -2.1338,-0.95533 -2.1338,-2.1338z" fill="#ffffff" stroke="none" stroke-width="0"/><path d="M186.94224,378.35491c0,-1.17847 0.95533,-2.1338 2.1338,-2.1338c1.17847,0 2.1338,0.95533 2.1338,2.1338c0,1.17847 -0.95533,2.1338 -2.1338,2.1338c-1.17847,0 -2.1338,-0.95533 -2.1338,-2.1338z" fill="#ffffff" stroke="none" stroke-width="0"/><path d="M199.83685,400.21968c0,-1.17847 0.95533,-2.1338 2.1338,-2.1338c1.17847,0 2.1338,0.95533 2.1338,2.1338c0,1.17847 -0.95533,2.1338 -2.1338,2.1338c-1.17847,0 -2.1338,-0.95533 -2.1338,-2.1338z" fill="#ffffff" stroke="none" stroke-width="0"/><path d="M232.49385,379.75649c0,-1.17847 0.95533,-2.1338 2.1338,-2.1338c1.17847,0 2.1338,0.95533 2.1338,2.1338c0,1.17847 -0.95533,2.1338 -2.1338,2.1338c-1.17847,0 -2.1338,-0.95533 -2.1338,-2.1338z" fill="#ffffff" stroke="none" stroke-width="0"/><path d="M255.19957,398.25745c0,-1.17847 0.95533,-2.1338 2.1338,-2.1338c1.17847,0 2.1338,0.95533 2.1338,2.1338c0,1.17847 -0.95533,2.1338 -2.1338,2.1338c-1.17847,0 -2.1338,-0.95533 -2.1338,-2.1338z" fill="#ffffff" stroke="none" stroke-width="0"/><path d="M277.06435,400.07952c0,-1.17847 0.95533,-2.1338 2.1338,-2.1338c1.17847,0 2.1338,0.95533 2.1338,2.1338c0,1.17847 -0.95533,2.1338 -2.1338,2.1338c-1.17847,0 -2.1338,-0.95533 -2.1338,-2.1338z" fill="#ffffff" stroke="none" stroke-width="0"/><path d="M299.3496,382.69983c0,-1.17847 0.95533,-2.1338 2.1338,-2.1338c1.17847,0 2.1338,0.95533 2.1338,2.1338c0,1.17847 -0.95533,2.1338 -2.1338,2.1338c-1.17847,0 -2.1338,-0.95533 -2.1338,-2.1338z" fill="#ffffff" stroke="none" stroke-width="0"/><path d="M342.09803,401.76142c0,-1.17847 0.95533,-2.1338 2.1338,-2.1338c1.17847,0 2.1338,0.95533 2.1338,2.1338c0,1.17847 -0.95533,2.1338 -2.1338,2.1338c-1.17847,0 -2.1338,-0.95533 -2.1338,-2.1338z" fill="#ffffff" stroke="none" stroke-width="0"/><path d="M346.86343,377.51395c0,-0.79143 0.64158,-1.43301 1.43301,-1.43301c0.79143,0 1.433,0.64158 1.433,1.43301c0,0.79143 -0.64158,1.43301 -1.433,1.43301c-0.79143,0 -1.43301,-0.64158 -1.43301,-1.43301z" fill="#ffffff" stroke="none" stroke-width="0"/><path d="M354.15169,396.99603c0,-0.79143 0.64158,-1.43301 1.43301,-1.43301c0.79143,0 1.433,0.64158 1.433,1.43301c0,0.79143 -0.64158,1.43301 -1.433,1.43301c-0.79143,0 -1.43301,-0.64158 -1.43301,-1.43301z" fill="#ffffff" stroke="none" stroke-width="0"/><path d="M340.8366,390.9692c0,-0.79143 0.64158,-1.43301 1.43301,-1.43301c0.79143,0 1.433,0.64158 1.433,1.43301c0,0.79143 -0.64158,1.43301 -1.433,1.43301c-0.79143,0 -1.43301,-0.64158 -1.43301,-1.43301z" fill="#ffffff" stroke="none" stroke-width="0"/><path d="M322.19548,399.93936c0,-0.79143 0.64158,-1.43301 1.43301,-1.43301c0.79143,0 1.433,0.64158 1.433,1.43301c0,0.79143 -0.64158,1.43301 -1.433,1.43301c-0.79143,0 -1.43301,-0.64158 -1.43301,-1.43301z" fill="#ffffff" stroke="none" stroke-width="0"/><path d="M283.93213,381.85887c0,-0.79143 0.64158,-1.43301 1.43301,-1.43301c0.79143,0 1.433,0.64158 1.433,1.43301c0,0.79143 -0.64158,1.43301 -1.433,1.43301c-0.79143,0 -1.43301,-0.64158 -1.43301,-1.43301z" fill="#ffffff" stroke="none" stroke-width="0"/><path d="M256.461,373.44935c0,-0.79143 0.64158,-1.43301 1.43301,-1.43301c0.79143,0 1.433,0.64158 1.433,1.43301c0,0.79143 -0.64158,1.43301 -1.433,1.43301c-0.79143,0 -1.43301,-0.64158 -1.43301,-1.43301z" fill="#ffffff" stroke="none" stroke-width="0"/><path d="M238.52068,395.87475c0,-0.79143 0.64158,-1.43301 1.43301,-1.43301c0.79143,0 1.433,0.64158 1.433,1.43301c0,0.79143 -0.64158,1.43301 -1.433,1.43301c-0.79143,0 -1.43301,-0.64158 -1.43301,-1.43301z" fill="#ffffff" stroke="none" stroke-width="0"/><path d="M162.55461,379.0557c0,-0.79143 0.64158,-1.43301 1.43301,-1.43301c0.79143,0 1.433,0.64158 1.433,1.43301c0,0.79143 -0.64158,1.43301 -1.433,1.43301c-0.79143,0 -1.43301,-0.64158 -1.43301,-1.43301z" fill="#ffffff" stroke="none" stroke-width="0"/><path d="M167.17985,400.5c0,-0.79143 0.64158,-1.43301 1.43301,-1.43301c0.79143,0 1.433,0.64158 1.433,1.43301c0,0.79143 -0.64158,1.43301 -1.433,1.43301c-0.79143,0 -1.43301,-0.64158 -1.43301,-1.43301z" fill="#ffffff" stroke="none" stroke-width="0"/><path d="M131.15903,392.09047c0,-0.79143 0.64158,-1.43301 1.43301,-1.43301c0.79143,0 1.433,0.64158 1.433,1.43301c0,0.79143 -0.64158,1.43301 -1.433,1.43301c-0.79143,0 -1.43301,-0.64158 -1.43301,-1.43301z" fill="#ffffff" stroke="none" stroke-width="0"/><path d="M96.39965,404.84492c0,-0.79143 0.64158,-1.43301 1.43301,-1.43301c0.79143,0 1.433,0.64158 1.433,1.43301c0,0.79143 -0.64158,1.43301 -1.433,1.43301c-0.79143,0 -1.43301,-0.64158 -1.43301,-1.43301z" fill="#ffffff" stroke="none" stroke-width="0"/><path d="M59.39773,374.15014c0,-0.79143 0.64158,-1.43301 1.43301,-1.43301c0.79143,0 1.433,0.64158 1.433,1.43301c0,0.79143 -0.64158,1.43301 -1.433,1.43301c-0.79143,0 -1.43301,-0.64158 -1.43301,-1.43301z" fill="#ffffff" stroke="none" stroke-width="0"/><path d="M47.34407,401.06063c0,-0.79143 0.64158,-1.43301 1.43301,-1.43301c0.79143,0 1.433,0.64158 1.433,1.43301c0,0.79143 -0.64158,1.43301 -1.433,1.43301c-0.79143,0 -1.43301,-0.64158 -1.43301,-1.43301z" fill="#ffffff" stroke="none" stroke-width="0"/><path d="M18.47136,397.83698c0,-0.79143 0.64158,-1.43301 1.43301,-1.43301c0.79143,0 1.433,0.64158 1.433,1.43301c0,0.79143 -0.64158,1.43301 -1.433,1.43301c-0.79143,0 -1.43301,-0.64158 -1.43301,-1.43301z" fill="#ffffff" stroke="none" stroke-width="0"/><path d="M32.20692,376.673c0,-0.79143 0.64158,-1.43301 1.43301,-1.43301c0.79143,0 1.433,0.64158 1.433,1.43301c0,0.79143 -0.64158,1.43301 -1.433,1.43301c-0.79143,0 -1.43301,-0.64158 -1.43301,-1.43301z" fill="#ffffff" stroke="none" stroke-width="0"/><path d="M8.52008,384.66205c0,-0.79143 0.64158,-1.43301 1.43301,-1.43301c0.79143,0 1.433,0.64158 1.433,1.43301c0,0.79143 -0.64158,1.43301 -1.433,1.43301c-0.79143,0 -1.43301,-0.64158 -1.43301,-1.43301z" fill="#ffffff" stroke="none" stroke-width="0"/></g></g></svg>