<svg version="1.1" xmlns="http://www.w3.org/2000/svg" xmlns:xlink="http://www.w3.org/1999/xlink" width="19.0244" height="19.0244" viewBox="0,0,19.0244,19.0244"><g transform="translate(-170.4878,-380.4878)"><g data-paper-data="{&quot;isPaintingLayer&quot;:true}" fill-rule="nonzero" stroke-width="1.5" stroke-linejoin="miter" stroke-miterlimit="10" stroke-dasharray="" stroke-dashoffset="0" style="mix-blend-mode: normal"><path d="M171.2378,390c0,-4.83923 3.92297,-8.7622 8.7622,-8.7622c4.83923,0 8.7622,3.92297 8.7622,8.7622c0,4.83923 -3.92297,8.7622 -8.7622,8.7622c-4.83923,0 -8.7622,-3.92297 -8.7622,-8.7622z" fill="#ffffff" stroke="#000000" stroke-linecap="butt"/><path d="M175.01475,383.00994c0,0 1.87587,3.45021 1.94302,6.06215c0.10086,3.92355 -2.72873,6.36642 -2.72873,6.36642" fill="none" stroke="#ff5757" stroke-linecap="round"/><path d="M185.53182,395.43851c0,0 -2.8296,-2.44288 -2.72873,-6.36642c0.06715,-2.61194 1.94302,-6.06215 1.94302,-6.06215" data-paper-data="{&quot;index&quot;:null}" fill="none" stroke="#ff5757" stroke-linecap="round"/><path d="M171.2378,390c0,-4.83923 3.92297,-8.7622 8.7622,-8.7622c4.83923,0 8.7622,3.92297 8.7622,8.7622c0,4.83923 -3.92297,8.7622 -8.7622,8.7622c-4.83923,0 -8.7622,-3.92297 -8.7622,-8.7622z" fill="none" stroke="#000000" stroke-linecap="butt"/></g></g></svg>