<svg version="1.1" xmlns="http://www.w3.org/2000/svg" xmlns:xlink="http://www.w3.org/1999/xlink" width="52.22965" height="52.21851" viewBox="0,0,52.22965,52.21851"><defs><radialGradient cx="180.00002" cy="390.00001" r="25.92857" gradientUnits="userSpaceOnUse" id="color-1"><stop offset="0" stop-color="#c55bff"/><stop offset="1" stop-color="#000000"/></radialGradient><radialGradient cx="171.07115" cy="381.06886" r="13.75779" gradientUnits="userSpaceOnUse" id="color-2"><stop offset="0" stop-color="#cf76ff"/><stop offset="1" stop-color="#c14eff"/></radialGradient><radialGradient cx="188.49739" cy="398.52196" r="13.75779" gradientUnits="userSpaceOnUse" id="color-3"><stop offset="0" stop-color="#cf76ff"/><stop offset="1" stop-color="#c14eff"/></radialGradient><radialGradient cx="188.51083" cy="381.08229" r="13.75778" gradientUnits="userSpaceOnUse" id="color-4"><stop offset="0" stop-color="#cf76ff"/><stop offset="1" stop-color="#c14eff"/></radialGradient><radialGradient cx="171.05771" cy="398.50853" r="13.75779" gradientUnits="userSpaceOnUse" id="color-5"><stop offset="0" stop-color="#cf76ff"/><stop offset="1" stop-color="#c14eff"/></radialGradient><radialGradient cx="180.17778" cy="389.78497" r="13.23904" gradientUnits="userSpaceOnUse" id="color-6"><stop offset="0" stop-color="#cf76ff"/><stop offset="1" stop-color="#c14eff"/></radialGradient><radialGradient cx="180.00001" cy="390.00001" r="16.28571" gradientUnits="userSpaceOnUse" id="color-7"><stop offset="0" stop-color="#b631ff"/><stop offset="1" stop-color="#c55aff"/></radialGradient><radialGradient cx="184.64209" cy="380.4291" r="13.23299" gradientUnits="userSpaceOnUse" id="color-8"><stop offset="0" stop-color="#a500ff"/><stop offset="1" stop-color="#b036f2"/></radialGradient><radialGradient cx="174.92644" cy="399.1617" r="13.233" gradientUnits="userSpaceOnUse" id="color-9"><stop offset="0" stop-color="#a500ff"/><stop offset="1" stop-color="#b036f2"/></radialGradient><radialGradient cx="170.41798" cy="384.93759" r="13.233" gradientUnits="userSpaceOnUse" id="color-10"><stop offset="0" stop-color="#a500ff"/><stop offset="1" stop-color="#b036f2"/></radialGradient><radialGradient cx="189.15056" cy="394.65324" r="13.233" gradientUnits="userSpaceOnUse" id="color-11"><stop offset="0" stop-color="#a500ff"/><stop offset="1" stop-color="#b036f2"/></radialGradient><radialGradient cx="179.46145" cy="389.91976" r="11.63736" gradientUnits="userSpaceOnUse" id="color-12"><stop offset="0" stop-color="#a500ff"/><stop offset="1" stop-color="#b036f2"/></radialGradient></defs><g transform="translate(-153.69894,-363.71008)"><g data-paper-data="{&quot;isPaintingLayer&quot;:true}" fill-rule="nonzero" stroke-width="0" stroke-linecap="butt" stroke-linejoin="miter" stroke-miterlimit="10" stroke-dasharray="" stroke-dashoffset="0" style="mix-blend-mode: normal"><path d="M154.07145,390.00001c0,-14.31995 11.60862,-25.92857 25.92857,-25.92857c14.31995,0 25.92857,11.60862 25.92857,25.92857c0,14.31995 -11.60862,25.92857 -25.92857,25.92857c-14.31995,0 -25.92857,-11.60862 -25.92857,-25.92857z" fill="url(#color-1)" stroke="none"/><g fill="#000000"><g><path d="M161.80977,393.46273c-3.66123,-4.37695 -8.57926,-1.11979 -7.55125,-7.58636c1.57572,-9.91179 9.19316,-16.12504 9.19316,-16.12504c0,0 -0.00403,12.66679 6.06398,13.20708c2.71655,0.24188 5.01838,-15.0951 10.42143,-18.41515c6.66588,-4.09604 2.15962,8.00608 5.93858,12.52376c2.34574,2.80429 -4.83941,5.60099 -10.55944,9.55708c-6.22558,4.30574 -11.22677,9.56397 -13.50647,6.83863z" stroke="#000000"/><path d="M197.75877,386.12808c3.66123,4.37695 8.57926,1.11979 7.55125,7.58636c-1.57572,9.91179 -9.19316,16.12504 -9.19316,16.12504c0,0 0.00403,-12.66679 -6.06398,-13.20708c-2.71655,-0.24188 -5.01838,15.0951 -10.42143,18.41515c-6.66588,4.09604 -2.15962,-8.00608 -5.93858,-12.52376c-2.34574,-2.80429 4.83941,-5.60099 10.55944,-9.55708c6.22558,-4.30574 11.22677,-9.56397 13.50647,-6.83863z" stroke="#000000"/><path d="M176.11694,371.8209c4.37695,-3.66123 1.11979,-8.57926 7.58636,-7.55125c9.91179,1.57572 16.12504,9.19316 16.12504,9.19316c0,0 -12.66679,-0.00403 -13.20708,6.06398c-0.24188,2.71655 15.0951,5.01838 18.41515,10.42143c4.09604,6.66588 -8.00608,2.15962 -12.52376,5.93858c-2.80429,2.34574 -5.60099,-4.83941 -9.55708,-10.55944c-4.30574,-6.22558 -9.56397,-11.22677 -6.83863,-13.50647z" stroke="#000000"/><path d="M183.4516,407.76991c-4.37695,3.66123 -1.11979,8.57926 -7.58636,7.55125c-9.91179,-1.57572 -16.12504,-9.19316 -16.12504,-9.19316c0,0 12.66679,0.00403 13.20708,-6.06398c0.24188,-2.71655 -15.0951,-5.01838 -18.41515,-10.42143c-4.09604,-6.66588 8.00608,-2.15962 12.52376,-5.93858c2.80429,-2.34574 5.60099,4.83941 9.55708,10.55944c4.30574,6.22558 9.56397,11.22677 6.83863,13.50647z" stroke="#000000"/><path d="M168.40977,399.72145c-5.46623,-6.53479 -4.59999,-16.26355 1.9348,-21.72978c6.53479,-5.46623 16.26356,-4.59999 21.72979,1.9348c5.46623,6.53479 4.59999,16.26355 -1.9348,21.72978c-6.53479,5.46623 -16.26356,4.59999 -21.72979,-1.9348z" stroke="none"/></g><g data-paper-data="{&quot;index&quot;:null}"><path d="M183.02015,386.22989c-5.65631,-2.31523 -12.35113,-3.35874 -10.86741,-6.20851c2.39025,-4.59093 -3.76257,-14.12676 2.73196,-11.87003c5.26415,1.8292 10.13583,14.55765 12.42167,13.83708c5.10592,-1.60954 2.71056,-12.48017 2.71056,-12.48017c0,0 7.711,3.89417 10.93503,12.10351c2.1034,5.35588 -2.7326,3.48907 -5.04838,7.93698c-1.44194,2.76953 -6.7272,-0.79902 -12.88342,-3.31887z" stroke="#000000"/><path d="M176.54839,393.36092c5.65631,2.31523 12.35113,3.35874 10.86741,6.20851c-2.39025,4.59093 3.76257,14.12676 -2.73196,11.87003c-5.26415,-1.8292 -10.13583,-14.55765 -12.42167,-13.83708c-5.10592,1.60954 -2.71056,12.48017 -2.71056,12.48017c0,0 -7.711,-3.89417 -10.93503,-12.10351c-2.1034,-5.35588 2.7326,-3.48907 5.04838,-7.93698c1.44194,-2.76953 6.7272,0.79902 12.88342,3.31887z" stroke="#000000"/><path d="M176.21876,386.55952c-2.31523,5.65631 -3.35874,12.35113 -6.20851,10.86741c-4.59093,-2.39025 -14.12676,3.76257 -11.87003,-2.73196c1.8292,-5.26415 14.55765,-10.13583 13.83708,-12.42167c-1.60954,-5.10592 -12.48017,-2.71056 -12.48017,-2.71056c0,0 3.89417,-7.711 12.10351,-10.93503c5.35588,-2.1034 3.48907,2.7326 7.93698,5.04838c2.76953,1.44194 -0.79902,6.7272 -3.31887,12.88342z" stroke="#000000"/><path d="M183.34978,393.03129c2.31523,-5.65631 3.35874,-12.35113 6.20851,-10.86741c4.59093,2.39025 14.12676,-3.76257 11.87003,2.73196c-1.8292,5.26415 -14.55765,10.13583 -13.83708,12.42167c1.60954,5.10592 12.48017,2.71056 12.48017,2.71056c0,0 -3.89417,7.711 -12.10351,10.93503c-5.35588,2.1034 -3.48907,-2.7326 -7.93698,-5.04838c-2.76953,-1.44194 0.79902,-6.7272 3.31887,-12.88342z" stroke="#000000"/><path d="M173.13645,401.9305c-6.64075,-3.45747 -9.2213,-11.6437 -5.76383,-18.28445c3.45747,-6.64075 11.6437,-9.2213 18.28444,-5.76383c6.64075,3.45747 9.2213,11.6437 5.76383,18.28444c-3.45747,6.64075 -11.6437,9.2213 -18.28444,5.76383z" stroke="none"/></g></g><g><path d="M164.69801,394.29852c-3.46293,-3.46294 -7.41916,-0.30424 -7.03257,-5.91039c0.59257,-8.59296 6.63136,-14.48413 6.63136,-14.48413c0,0 0.96068,10.82844 6.18901,10.82844c2.34063,0 3.14098,-13.28593 7.50704,-16.5353c5.38652,-4.00885 2.45552,6.67957 6.0298,10.25385c2.21869,2.21869 -3.71062,5.15632 -8.29924,8.97354c-4.99417,4.15459 -8.86918,9.03022 -11.02541,6.874z" fill="url(#color-2)" stroke="#000000"/><path d="M194.87053,385.2923c3.46293,3.46294 7.41916,0.30424 7.03257,5.91039c-0.59257,8.59296 -6.63136,14.48413 -6.63136,14.48413c0,0 -0.96068,-10.82844 -6.18901,-10.82844c-2.34063,0 -3.14098,13.28593 -7.50704,16.5353c-5.38652,4.00885 -2.45552,-6.67957 -6.0298,-10.25385c-2.21869,-2.21869 3.71062,-5.15632 8.29924,-8.97354c4.99417,-4.15459 8.86918,-9.03023 11.02541,-6.874z" fill="url(#color-3)" stroke="#000000"/><path d="M175.28116,374.70915c3.46293,-3.46294 0.30424,-7.41917 5.91039,-7.03257c8.59296,0.59256 14.48413,6.63137 14.48413,6.63137c0,0 -10.82843,0.96067 -10.82843,6.18901c0,2.34064 13.28592,3.14098 16.5353,7.50704c4.00885,5.38652 -6.67957,2.45552 -10.25385,6.0298c-2.21869,2.21869 -5.15632,-3.71062 -8.97354,-8.29924c-4.15459,-4.99417 -9.03023,-8.86918 -6.874,-11.0254z" fill="url(#color-4)" stroke="#000000"/><path d="M184.28738,404.88167c-3.46293,3.46294 -0.30424,7.41916 -5.91039,7.03257c-8.59296,-0.59256 -14.48413,-6.63136 -14.48413,-6.63136c0,0 10.82843,-0.96068 10.82843,-6.18901c0,-2.34064 -13.28592,-3.14098 -16.5353,-7.50704c-4.00885,-5.38652 6.67957,-2.45552 10.25385,-6.0298c2.21869,-2.21869 5.15632,3.71062 8.97354,8.29924c4.15459,4.99417 9.03023,8.86918 6.874,11.02541z" fill="url(#color-5)" stroke="#000000"/><path d="M170.81636,399.14639c-5.17016,-5.17016 -5.17016,-13.55268 0,-18.72284c5.17016,-5.17016 13.55268,-5.17016 18.72285,0c5.17016,5.17016 5.17016,13.55268 0,18.72284c-5.17016,5.17016 -13.55268,5.17016 -18.72285,0z" fill="url(#color-6)" stroke="none"/></g><path d="M163.7143,390.00001c0,-8.99436 7.29136,-16.28571 16.28571,-16.28571c8.99436,0 16.28571,7.29136 16.28571,16.28571c0,8.99436 -7.29136,16.28571 -16.28571,16.28571c-8.99436,0 -16.28571,-7.29136 -16.28571,-16.28571z" fill="url(#color-7)" stroke="none"/><g data-paper-data="{&quot;index&quot;:null}"><path d="M182.27906,386.50115c-5.01148,-1.54863 -10.81394,-1.9311 -9.7625,-4.48014c1.69385,-4.10647 -4.29166,-11.78979 1.43192,-10.35496c4.63925,1.163 9.77261,11.67304 11.67179,10.88308c4.24226,-1.76454 1.36718,-10.87492 1.36718,-10.87492c0,0 6.8881,2.74199 10.269,9.5143c2.20574,4.41834 -2.07037,3.1906 -3.71146,7.16914c-1.02184,2.47727 -5.81152,-0.171 -11.26593,-1.8565z" fill="url(#color-8)" stroke="#000000"/><path d="M177.28948,393.08966c5.01148,1.54863 10.81394,1.9311 9.7625,4.48014c-1.69385,4.10647 4.29166,11.78979 -1.43192,10.35496c-4.63925,-1.163 -9.77261,-11.67304 -11.67179,-10.88308c-4.24225,1.76454 -1.36718,10.87491 -1.36718,10.87491c0,0 -6.8881,-2.74199 -10.269,-9.5143c-2.20574,-4.41834 2.07037,-3.1906 3.71146,-7.16914c1.02184,-2.47727 5.81152,0.171 11.26593,1.85651z" fill="url(#color-9)" stroke="#000000"/><path d="M176.49002,387.30062c-1.54863,5.01148 -1.9311,10.81394 -4.48013,9.7625c-4.10647,-1.69385 -11.78979,4.29166 -10.35496,-1.43192c1.163,-4.63925 11.67304,-9.7726 10.88308,-11.67179c-1.76454,-4.24225 -10.87491,-1.36719 -10.87491,-1.36719c0,0 2.74199,-6.8881 9.5143,-10.269c4.41834,-2.20574 3.1906,2.07038 7.16914,3.71146c2.47727,1.02184 -0.171,5.81152 -1.8565,11.26593z" fill="url(#color-10)" stroke="#000000"/><path d="M183.07853,392.2902c1.54863,-5.01148 1.9311,-10.81394 4.48013,-9.7625c4.10646,1.69385 11.78979,-4.29166 10.35496,1.43192c-1.163,4.63925 -11.67304,9.7726 -10.88308,11.67179c1.76454,4.24226 10.87491,1.36719 10.87491,1.36719c0,0 -2.74199,6.8881 -9.5143,10.269c-4.41834,2.20574 -3.1906,-2.07038 -7.16914,-3.71146c-2.47727,-1.02184 0.171,-5.81152 1.8565,-11.26593z" fill="url(#color-11)" stroke="#000000"/><path d="M175.02508,400.67502c-5.93997,-2.45014 -8.76903,-9.25168 -6.31889,-15.19164c2.45014,-5.93996 9.25168,-8.76903 15.19164,-6.31889c5.93997,2.45014 8.76903,9.25168 6.31889,15.19164c-2.45014,5.93996 -9.25168,8.76903 -15.19164,6.31889z" fill="url(#color-12)" stroke="none"/></g></g></g></svg>