<svg version="1.1" xmlns="http://www.w3.org/2000/svg" xmlns:xlink="http://www.w3.org/1999/xlink" width="16.50108" height="16.50142" viewBox="0,0,16.50108,16.50142"><g transform="translate(-171.74918,-381.75)"><g data-paper-data="{&quot;isPaintingLayer&quot;:true}" fill-rule="nonzero" stroke="#000000" stroke-width="0.5" stroke-linecap="butt" stroke-linejoin="miter" stroke-miterlimit="10" stroke-dasharray="" stroke-dashoffset="0" style="mix-blend-mode: normal"><path d="M187.41147,398.00142c-0.15065,0 -0.30129,-0.05757 -0.41643,-0.17223l-14.70031,-14.70079c-0.22981,-0.22981 -0.22981,-0.60306 0,-0.83286c0.22981,-0.22981 0.60306,-0.22981 0.83286,0l14.70031,14.70031c0.22981,0.22981 0.22981,0.60306 0,0.83286c-0.11514,0.11466 -0.26579,0.17271 -0.41643,0.17271z" fill="#d99e82"/><path d="M178.47786,385.23934c0,1.78902 -1.45031,3.23934 -3.23934,3.23934c-1.78902,0 -3.23934,-1.45031 -3.23934,-3.23934c0,-1.78902 1.45031,-3.23934 3.23934,-3.23934c1.78902,0 3.23934,1.45031 3.23934,3.23934z" fill="#fcb1e3"/><path d="M178.02885,391.92683c-1.74115,-0.41114 -2.81934,-2.15592 -2.4082,-3.89707c0.41114,-1.74115 2.15592,-2.81934 3.89707,-2.4082c1.74115,0.41114 2.81934,2.15592 2.4082,3.89707c-0.41114,1.74115 -2.15592,2.81934 -3.89707,2.4082z" fill="#ffd983"/><path d="M185.54616,392.30716c0,1.78902 -1.45079,3.23982 -3.23982,3.23982c-1.78902,0 -3.23934,-1.45079 -3.23934,-3.23982c0,-1.78902 1.45031,-3.23934 3.23934,-3.23934c1.78902,0 3.23982,1.45079 3.23982,3.23934z" fill="#a6d388"/><path d="M187.41147,398.00142c-0.15065,0 -0.30129,-0.05757 -0.41643,-0.17223l-3.60779,-3.60779c-0.23029,-0.22981 -0.23029,-0.60306 0,-0.83286c0.23029,-0.22981 0.60258,-0.22981 0.83286,0l3.60779,3.60779c0.22981,0.22981 0.22981,0.60306 0,0.83286c-0.11514,0.11418 -0.26579,0.17223 -0.41643,0.17223z" fill="#d99e82"/></g></g></svg>