<svg version="1.1" xmlns="http://www.w3.org/2000/svg" xmlns:xlink="http://www.w3.org/1999/xlink" width="19.0244" height="19.0244" viewBox="0,0,19.0244,19.0244"><g transform="translate(-170.4878,-380.4878)"><g data-paper-data="{&quot;isPaintingLayer&quot;:true}" fill-rule="nonzero" stroke="#000000" stroke-width="1.5" stroke-linejoin="miter" stroke-miterlimit="10" stroke-dasharray="" stroke-dashoffset="0" style="mix-blend-mode: normal"><path d="M171.2378,390c0,-4.83923 3.92297,-8.7622 8.7622,-8.7622c4.83923,0 8.7622,3.92297 8.7622,8.7622c0,4.83923 -3.92297,8.7622 -8.7622,8.7622c-4.83923,0 -8.7622,-3.92297 -8.7622,-8.7622z" fill="#ff4900" stroke-linecap="butt"/><path d="M180,382v15.92857" fill="none" stroke-linecap="round"/><path d="M187.96429,389.96429h-15.92857" fill="none" stroke-linecap="round"/><path d="M175.08618,383.36708c0,0 0.90171,4.15592 4.89077,4.2435c3.82063,0.08388 5.10923,-4.02921 5.10923,-4.02921" fill="none" stroke-linecap="round"/><path d="M175.08618,397.18327c0,0 0.90171,-4.15592 4.89077,-4.2435c3.82063,-0.08388 5.10923,4.02921 5.10923,4.02921" data-paper-data="{&quot;index&quot;:null}" fill="none" stroke-linecap="round"/></g></g></svg>