<svg version="1.1" xmlns="http://www.w3.org/2000/svg" xmlns:xlink="http://www.w3.org/1999/xlink" width="19.0244" height="19.0244" viewBox="0,0,19.0244,19.0244"><g transform="translate(-170.4878,-380.4878)"><g data-paper-data="{&quot;isPaintingLayer&quot;:true}" fill-rule="nonzero" stroke-linecap="butt" stroke-linejoin="miter" stroke-miterlimit="10" stroke-dasharray="" stroke-dashoffset="0" style="mix-blend-mode: normal"><path d="M171.2378,390c0,-4.83923 3.92297,-8.7622 8.7622,-8.7622c4.83923,0 8.7622,3.92297 8.7622,8.7622c0,4.83923 -3.92297,8.7622 -8.7622,8.7622c-4.83923,0 -8.7622,-3.92297 -8.7622,-8.7622z" fill="#ffffff" stroke="#000000" stroke-width="1.5"/><path d="M171.2378,390c0,-4.83923 3.92297,-8.7622 8.7622,-8.7622c4.83923,0 8.7622,3.92297 8.7622,8.7622c0,4.83923 -3.92297,8.7622 -8.7622,8.7622c-4.83923,0 -8.7622,-3.92297 -8.7622,-8.7622z" fill="#ffffff" stroke="#000000" stroke-width="1.5"/><path d="M171.2378,390c0,-4.83923 3.92297,-8.7622 8.7622,-8.7622c4.83923,0 8.7622,3.92297 8.7622,8.7622c0,4.83923 -3.92297,8.7622 -8.7622,8.7622c-4.83923,0 -8.7622,-3.92297 -8.7622,-8.7622z" fill="#ffffff" stroke="#000000" stroke-width="1.5"/><path d="M183.47034,385.85857c1.0135,-0.76092 2.65575,-1.34968 2.65575,0.52378c0,0.37411 -0.21451,3.14305 -0.34033,3.59262c-0.43727,1.56286 -2.03094,1.96148 -3.44855,1.72022c2.47793,0.42164 3.10826,1.81864 1.74692,3.21555c-2.58556,2.65309 -3.71612,-0.66565 -4.00581,-1.51601c-0.0531,-0.1559 -0.07795,-0.22882 -0.07832,-0.16681c-0.00036,-0.06201 -0.02521,0.01092 -0.07832,0.16681c-0.28983,0.85036 -1.4204,4.16901 -4.00581,1.51601c-1.36132,-1.39691 -0.73097,-2.79382 1.74692,-3.21555c-1.41757,0.24126 -3.01121,-0.15736 -3.44855,-1.72022c-0.12581,-0.44953 -0.34033,-3.21846 -0.34033,-3.59262c0,-1.87346 1.64221,-1.2847 2.65575,-0.52378c1.40473,1.05453 2.91554,3.19282 3.47031,4.34021c0.55472,-1.14748 2.06562,-3.28566 3.47031,-4.34021z" fill="#1185fe" stroke="none" stroke-width="1"/></g></g></svg>