<svg version="1.1" xmlns="http://www.w3.org/2000/svg" xmlns:xlink="http://www.w3.org/1999/xlink" width="65.83333" height="63.88462" viewBox="0,0,65.83333,63.88462"><g transform="translate(7.37688,-727.38907)"><g data-paper-data="{&quot;isPaintingLayer&quot;:true}" fill-rule="nonzero" stroke-linecap="butt" stroke-linejoin="miter" stroke-miterlimit="10" stroke-dasharray="" stroke-dashoffset="0" style="mix-blend-mode: normal"><path d="M-6.12688,790.02369v-61.38462h63.33333v61.38462z" fill="#ffffff" stroke="#000000" stroke-width="2.5"/><g stroke="none" stroke-width="0"><g fill="#000000"><path d="M26.01,772.10555c-8.97061,0 -16.24271,-7.2721 -16.24271,-16.24271c0,-8.97061 7.27211,-16.24271 16.24271,-16.24271c8.97061,0 16.24271,7.27211 16.24271,16.24271c0,8.97061 -7.2721,16.24271 -16.24271,16.24271z"/><path d="M20.31694,741.4088l2.43946,-6.99068h6.72302l2.43946,6.99068z"/><path d="M31.91888,770.65426l-2.43946,6.99068h-6.72302l-2.43946,-6.99068z" data-paper-data="{&quot;index&quot;:null}"/><path d="M40.80141,750.1698l6.99068,2.43946v6.72302l-6.99068,2.43946z"/><path d="M11.55595,761.77173l-6.99068,-2.43946v-6.72302l6.99068,-2.43946z" data-paper-data="{&quot;index&quot;:null}"/><path d="M32.37364,741.54683l6.66811,-3.2182l4.7539,4.7539l-3.2182,6.66811z"/><path d="M19.89778,770.4303l-6.66811,3.2182l-4.7539,-4.7539l3.2182,-6.66811z" data-paper-data="{&quot;index&quot;:null}"/><path d="M40.66338,762.22649l3.2182,6.66811l-4.7539,4.7539l-6.66811,-3.2182z"/><path d="M11.77991,749.75063l-3.2182,-6.66811l4.7539,-4.7539l6.66811,3.2182z" data-paper-data="{&quot;index&quot;:null}"/></g><path d="M19.67918,756.03153c0,-3.58958 2.90992,-6.4995 6.4995,-6.4995c3.58958,0 6.4995,2.90992 6.4995,6.4995c0,3.58958 -2.90992,6.4995 -6.4995,6.4995c-3.58958,0 -6.4995,-2.90992 -6.4995,-6.4995z" fill="#ffffff"/></g></g></g></svg>